<?xml version="1.0" standalone="no"?><!DOCTYPE svg PUBLIC "-//W3C//DTD SVG 1.1//EN" "http://www.w3.org/Graphics/SVG/1.1/DTD/svg11.dtd"><svg t="1681965515751" class="icon" viewBox="0 0 1024 1024" version="1.1" xmlns="http://www.w3.org/2000/svg" p-id="41896" xmlns:xlink="http://www.w3.org/1999/xlink" width="200" height="200"><path d="M746.666667 853.333333v149.333334H277.333333v-149.333334c42.666667 0 64-64 64-64h341.333334s21.333333 64 64 64z" fill="#1296db" p-id="41897"></path><path d="M832 789.333333v213.333334h-85.333333v-149.333334c-42.666667 0-64-64-64-64v-169.386666A170.666667 170.666667 0 0 1 832 789.333333zM682.666667 619.946667V789.333333H341.333333v-169.386666a176.256 176.256 0 0 1 21.333334-1.28h21.333333c0 35.413333 57.173333 64 128 64s128-28.586667 128-64h21.333333a176.256 176.256 0 0 1 21.333334 1.28zM341.333333 619.946667V789.333333s-21.333333 64-64 64v149.333334H192V789.333333a170.666667 170.666667 0 0 1 149.333333-169.386666z" fill="#1296db" p-id="41898"></path><path d="M597.333333 576a42.794667 42.794667 0 0 0 42.666667 42.666667c0 35.413333-57.173333 64-128 64s-128-28.586667-128-64a42.794667 42.794667 0 0 0 42.666667-42.666667v-64l0.64-1.28a169.898667 169.898667 0 0 0 169.386666 0L597.333333 512zM704 298.666667a42.666667 42.666667 0 0 1 0 85.333333h-21.333333l-1.28-0.213333A172.8 172.8 0 0 0 682.666667 362.666667v-64zM342.613333 383.786667L341.333333 384h-21.333333a42.666667 42.666667 0 0 1 0-85.333333h21.333333v64a172.8 172.8 0 0 0 1.28 21.12z" fill="#1296db" p-id="41899"></path><path d="M682.666667 298.666667v64a172.8 172.8 0 0 1-1.28 21.12 170.517333 170.517333 0 0 1-254.08 126.933333 167.210667 167.210667 0 0 1-36.053334-27.306667A170.325333 170.325333 0 0 1 341.333333 362.666667v-85.333334h341.333334z" fill="#1296db" p-id="41900"></path><path d="M704 213.333333v64H256l64-64h384z" fill="#1296db" p-id="41901"></path><path d="M704 213.333333H320a192 192 0 0 1 384 0z" fill="#1296db" p-id="41902"></path><path d="M704 234.666667H320a21.333333 21.333333 0 0 1-21.333333-21.333334 213.333333 213.333333 0 0 1 426.666666 0 21.333333 21.333333 0 0 1-21.333333 21.333334zM342.656 192h338.666667a170.666667 170.666667 0 0 0-338.666667 0zM832 1024H192a21.333333 21.333333 0 0 1-21.333333-21.333333V789.333333a192.213333 192.213333 0 0 1 192-192h21.333333a21.333333 21.333333 0 0 0 21.333333-21.333333v-64h42.666667v64a64 64 0 0 1-64 64h-21.333333a149.525333 149.525333 0 0 0-149.333334 149.333333v192h597.333334v-192a149.525333 149.525333 0 0 0-149.333334-149.333333h-21.333333a64 64 0 0 1-64-64v-64h42.666667v64a21.333333 21.333333 0 0 0 21.333333 21.333333h21.333333a192.213333 192.213333 0 0 1 192 192v213.333334a21.333333 21.333333 0 0 1-21.333333 21.333333z" fill="#1296db" p-id="41903"></path><path d="M512 554.666667a192.213333 192.213333 0 0 1-192-192v-85.333334h42.666667v85.333334a149.333333 149.333333 0 0 0 298.666666 0v-85.333334h42.666667v85.333334a192.213333 192.213333 0 0 1-192 192z" fill="#1296db" p-id="41904"></path><path d="M704 405.333333h-21.333333v-42.666666h21.333333a21.333333 21.333333 0 0 0 0-42.666667h-21.333333v-42.666667h21.333333a64 64 0 0 1 0 128zM341.333333 405.333333h-21.333333a64 64 0 0 1 0-128h21.333333v42.666667h-21.333333a21.333333 21.333333 0 0 0 0 42.666667h21.333333zM512 704c-85.12 0-149.333333-36.693333-149.333333-85.333333h42.666666c0 17.386667 41.557333 42.666667 106.666667 42.666666s106.666667-25.28 106.666667-42.666666h42.666666c0 48.64-64.213333 85.333333-149.333333 85.333333z" fill="#1296db" p-id="41905"></path><path d="M682.666667 810.666667H341.333333a21.333333 21.333333 0 0 1-21.333333-21.333334v-170.666666h42.666667v149.333333h298.666666v-149.333333h42.666667v170.666666a21.333333 21.333333 0 0 1-21.333333 21.333334z" fill="#1296db" p-id="41906"></path><path d="M768 1002.666667h-42.666667v-131.584c-41.514667-14.485333-60.586667-68.053333-62.890666-75.008l40.533333-13.525334c4.266667 12.8 21.738667 49.450667 43.776 49.450667a21.333333 21.333333 0 0 1 21.333333 21.333333zM298.666667 1002.666667h-42.666667v-149.333334a21.333333 21.333333 0 0 1 21.333333-21.333333c22.656 0 40.298667-38.976 43.776-49.408l40.533334 13.482667c-2.304 6.954667-21.333333 60.522667-62.890667 75.008zM704 298.666667H256a21.333333 21.333333 0 0 1-15.082667-36.416l64-64 30.165334 30.165333L307.498667 256H682.666667v-42.666667h42.666666v64a21.333333 21.333333 0 0 1-21.333333 21.333334zM390.250667 134.250667l64-64 30.165333 30.165333-64 64zM539.584 100.416l30.165333-30.165333 64 64-30.165333 30.165333zM490.666667 85.333333h42.666666v85.333334h-42.666666z" fill="#1296db" p-id="41907"></path></svg>