<?xml version="1.0" standalone="no"?><!DOCTYPE svg PUBLIC "-//W3C//DTD SVG 1.1//EN" "http://www.w3.org/Graphics/SVG/1.1/DTD/svg11.dtd"><svg t="1677202962852" class="icon" viewBox="0 0 1073 1024" version="1.1" xmlns="http://www.w3.org/2000/svg" p-id="3031" xmlns:xlink="http://www.w3.org/1999/xlink" width="134.125" height="128"><path d="M961.332275 424.868244c0-19.378925-15.708674-35.087599-35.087599-35.087599S891.157077 405.489319 891.157077 424.868244v529.984229H181.917794v-529.984229c0-19.378925-15.708674-35.087599-35.087598-35.087599-19.232115 0-35.087599 15.708674-35.234409 35.087599v565.952688c0 1.17448 0.29362 2.202151 0.44043 2.936201 0.14681 1.17448 0.44043 2.055341 0.58724 2.9362 0 0.29362 0.14681 0.44043 0.14681 0.734051 2.348961 12.332043 10.717133 22.168315 22.168316 26.278996l1.4681-1.61491c3.523441 1.17448 7.340502 1.90853 11.304373 1.90853h779.56129c3.376631 0 6.753262-0.44043 9.836273-1.4681l1.17448 1.17448c8.955412-3.229821 15.855484-9.836272 19.672545-18.351255 2.495771-4.697921 3.963871-10.129892 3.963871-15.855483 0-1.32129-0.14681-2.642581-0.29362-3.963871V424.868244z" fill="#404040" p-id="3032"></path><path d="M536.464031 599.278566c34.793978 0 62.981505-28.187527 62.981505-62.981505s-28.187527-62.981505-62.981505-62.981505c-16.883154 0-32.738638 6.606452-44.630251 18.498064-11.891613 11.891613-18.351254 27.747097-18.351255 44.336631 0 34.793978 28.334337 63.128315 62.981506 63.128315zM1060.575859 370.1081l-156.793118-132.569462c0.58724-11.010753 1.32129-43.749391 1.90853-146.810036 0-19.378925-15.708674-35.087599-35.087599-35.087598s-35.087599 15.708674-35.087598 35.087598v89.113692C722.178726 85.149821 696.78059 64.596416 690.320948 59.898495 647.892848 21.287455 593.279515 0 536.464031 0c-56.668674 0-111.282007 21.287455-153.856918 59.751685-6.900072 5.138351-36.702509 29.802437-186.155125 155.471828-91.022222 76.634839-183.072115 154.150538-183.952975 154.884587-14.827814 12.478853-16.736344 34.793978-4.257491 49.768603 12.332043 14.827814 34.647168 16.736344 49.474982 4.257491L419.456432 118.328889c6.019211-4.991541 27.453477-20.259785 29.068387-21.434265 26.278996-17.323584 56.668674-26.572616 87.939212-26.572617 31.417348 0 61.953835 9.102222 87.939211 26.572617 1.4681 1.02767 23.049176 16.295914 29.068387 21.434265l361.739929 305.805305c6.312832 5.431971 14.240573 8.368172 22.608745 8.368172 1.02767 0 1.90853 0 2.936201-0.14681 9.395842-0.73405 17.910824-5.285161 24.076846-12.478853 12.478853-14.974624 10.570323-37.289749-4.257491-49.768603z" fill="#404040" p-id="3033"></path><path d="M529.563959 846.653477c0.29362 0.14681 0.44043 0.29362 0.73405 0.44043l0.880861 2.78939h11.010752l0.73405-2.64258c16.589534-10.717133 66.211326-44.483441 114.952259-94.692473 31.564158-32.445018 56.815484-65.770896 74.726308-98.803154 22.461935-41.25362 33.913118-82.50724 33.913118-122.43957 0-124.05448-103.207455-225.059785-230.051326-225.059785-62.541075 0-120.97147 24.076846-164.57405 67.679426-42.28129 42.28129-65.477276 98.215914-65.477276 157.380359 0 70.615627 34.353548 142.699355 102.032975 214.342652 23.930036 25.251326 64.155986 63.275125 121.118279 101.005305z m-152.682437-315.054337c0-85.590251 71.643297-155.178208 159.729319-155.178208s159.729319 69.587957 159.729319 155.178208c0 109.813907-110.841577 189.091326-159.435699 218.453333-0.44043-0.29362-1.02767-0.73405-1.61491-1.02767C433.109766 680.611326 376.881522 603.389247 376.881522 531.59914z" fill="#404040" p-id="3034"></path></svg>
